# xmcd
#
# Track frame offsets:
#	150
#	12638
#	27747
#	46315
#	56861
#	73173
#	89009
#	105995
#	124734
#	136145
#	149777
#	163880
#	175159
#	182185
#	197963
#	212880
#	230714
#	239364
#	253598
#	270352
#	286315
#	301627
#	316410
#
# Disc length: 4563 seconds
#
# Revision: 0
# Processed by: cddbd v1.4PL0 Copyright (c) Steve Scherf et al.
# Submitted via: dBpowerAMP V4.0
#
DISCID=6711d117
DTITLE=Vários - 32a. DivinaExpo
DYEAR=2002
DGENRE=Rodeio
TTITLE0=Gleydson Rodrigues - Dá dá dá
TTITLE1=Bruno and Marlon - Não foge da raia
TTITLE2=Arlan Batista - Malícia
TTITLE3=Jota Lenon - Vai Jotinha
TTITLE4=Gino and Geno - Ela chorou de amor
TTITLE5=Os Astronautas - Menina Forrozeira
TTITLE6=Falamansa - Solução
TTITLE7=Trio Chapahalls - Pra rebolar
TTITLE8=Festa na Roça
TTITLE9=Cuitelinho
TTITLE10=Nega
TTITLE11=Arlan Batista - Fusco a gás
TTITLE12=Gleydson Rodrigues - Dá dá dá ao vivo
TTITLE13=Bruno and Marlon - Não fujo da raia
TTITLE14=Teodoro and Sampaio - Garrafão
TTITLE15=Pouti-Pourri
TTITLE16=Eduardo Costa - Mexidinho dela
TTITLE17=Arlan Batista - Menina Aurora
TTITLE18=Vem me ver
TTITLE19=Erick and nando - Tô querendo mais
TTITLE20=Trio Chapahalls - Na base do cacete
TTITLE21=Trio Alto Astral - O baile tá pegando fogo
TTITLE22=Marco Brasil - (Poema) Filho Ingrato
EXTD=DivinaExpo - Festa do Rodeio em Divinópolis/MG/Brasil
EXTT0=
EXTT1=
EXTT2=
EXTT3=
EXTT4=
EXTT5=
EXTT6=
EXTT7=
EXTT8=
EXTT9=
EXTT10=
EXTT11=
EXTT12=
EXTT13=
EXTT14=
EXTT15=
EXTT16=
EXTT17=
EXTT18=
EXTT19=
EXTT20=
EXTT21=
EXTT22=
PLAYORDER=
